<?xml version="1.0" encoding="iso-8859-1"?>
<!-- Generator: Adobe Illustrator 19.0.0, SVG Export Plug-In . SVG Version: 6.00 Build 0)  -->
<svg version="1.1" id="Layer_1" xmlns="http://www.w3.org/2000/svg" xmlns:xlink="http://www.w3.org/1999/xlink" x="0px" y="0px"
	 viewBox="0 0 511.997 511.997" style="enable-background:new 0 0 511.997 511.997;" xml:space="preserve">
<g>
	<g>
		<path d="M510.797,187.224c-1.202-1.955-3.175-3.309-5.43-3.726c-25.076-4.643-48.703-14.44-69.509-28.543l17.425-17.425
			c1.52-1.519,2.374-3.581,2.374-5.73s-0.854-4.211-2.374-5.73l-46.973-46.973c-3.164-3.165-8.295-3.165-11.46,0l-14.778,14.778
			c-0.004-0.009-0.009-0.016-0.013-0.025c-1.896-3.656-4.08-7.198-6.493-10.531c-0.73-1.037-1.563-2.141-2.54-3.369
			c-25.265-31.734-69.755-41.33-105.79-22.815c-2.16,1.11-3.708,3.129-4.22,5.504c-0.51,2.374,0.07,4.852,1.583,6.752l48.595,61.035
			l-27.542,21.929c-2.13,1.696-3.266,4.348-3.024,7.06c0.242,2.712,1.829,5.122,4.226,6.413c4.993,2.692,9.838,5.609,14.534,8.734
			l-26.317,26.317c-1.714,1.714-3.415,3.486-5.056,5.268c-3.033,3.291-2.823,8.419,0.469,11.452
			c1.557,1.435,3.526,2.144,5.489,2.144c2.185,0,4.364-0.879,5.962-2.613c1.492-1.62,3.04-3.231,4.597-4.789l28.085-28.085
			c8.201,6.597,15.845,13.909,22.869,21.903c1.986,2.265,3.945,4.609,5.822,6.966c2,2.512,3.912,5.085,5.772,7.689l-57.956,57.956
			c-5.092-7.625-9.579-15.752-13.335-24.195c-8.909-20.081-21.31-38.147-36.856-53.694l-26.322-26.322
			c4.695-3.125,9.539-6.042,14.531-8.735c2.397-1.292,3.984-3.702,4.225-6.414c0.242-2.712-0.895-5.364-3.024-7.059l-27.536-21.923
			l48.591-61.044c1.513-1.9,2.094-4.378,1.582-6.752c-0.511-2.374-2.06-4.393-4.219-5.503c-36.03-18.512-80.522-8.916-105.8,22.831
			c-1.006,1.267-1.81,2.334-2.526,3.353c-2.402,3.313-4.588,6.854-6.5,10.531c-0.004,0.01-0.01,0.018-0.014,0.027l-14.776-14.775
			c-3.165-3.165-8.296-3.165-11.46,0l-46.973,46.973c-1.52,1.519-2.374,3.581-2.374,5.73s0.854,4.211,2.374,5.73l17.439,17.439
			c-12.52,8.494-26.08,15.448-40.422,20.632c-9.387,3.398-19.179,6.055-29.105,7.897c-2.255,0.418-4.227,1.772-5.427,3.727
			c-1.201,1.955-1.516,4.325-0.87,6.525c9.412,32.045,28.238,60.011,54.443,80.873c20.2,16.084,43.192,26.839,68.338,31.965
			c0.537,0.109,1.079,0.163,1.619,0.163c1.646,0,3.268-0.501,4.638-1.459c1.821-1.271,3.04-3.232,3.373-5.427
			c1.45-9.536,3.653-18.976,6.549-28.06c6.791-21.287,17.357-41.031,31.395-58.672c1.926-2.41,3.889-4.758,5.83-6.972
			c7.025-7.996,14.67-15.309,22.871-21.907l28.089,28.089c14.133,14.133,25.404,30.553,33.505,48.813
			c4.448,9.999,9.817,19.601,15.96,28.541c6.175,8.987,13.208,17.444,20.902,25.138l110.378,110.384l-19.449,19.449L176.865,232.763
			c-3.165-3.165-8.296-3.165-11.46,0c-3.165,3.165-3.165,8.295,0,11.46l47.686,47.686c-3.282,3.978-6.749,7.822-10.386,11.46
			l-33.548,33.548c-3.165,3.165-3.165,8.296,0,11.46c1.582,1.583,3.657,2.374,5.73,2.374c2.074,0,4.148-0.791,5.73-2.374
			l33.548-33.548c3.636-3.636,7.111-7.468,10.428-11.418l158.447,158.448c1.582,1.583,3.657,2.374,5.73,2.374
			c2.074,0,4.148-0.791,5.73-2.374l30.909-30.909c1.52-1.519,2.374-3.581,2.374-5.73s-0.854-4.211-2.374-5.73L309.296,303.375
			c-3.639-3.639-7.111-7.471-10.4-11.456l57.201-57.201c11.76,20.047,19.676,42.172,23.162,65.144
			c0.333,2.196,1.553,4.158,3.373,5.429c1.371,0.957,2.993,1.46,4.639,1.46c0.54,0,1.082-0.054,1.62-0.163
			c25.146-5.127,48.139-15.882,68.342-31.967c26.202-20.861,45.026-48.826,54.436-80.868
			C512.315,191.551,511.998,189.179,510.797,187.224z M75.902,131.8l35.511-35.511l12.058,12.058
			c-0.662,0.98-1.324,1.933-1.989,2.844c-1.488,2.033-3.053,4.077-4.655,6.086c-8.211,10.318-17.46,19.653-27.548,27.902
			L75.902,131.8z M164.327,195.471c-2.108,2.405-4.231,4.944-6.32,7.557c-13.508,16.975-24.053,35.738-31.425,55.871
			c-13.329-5.274-25.797-12.49-37.147-21.528c-3.5-2.788-8.599-2.21-11.388,1.291c-2.788,3.501-2.21,8.6,1.291,11.388
			c12.896,10.27,27.097,18.427,42.299,24.321c-1.31,4.754-2.465,9.573-3.423,14.437c-19.46-5.126-37.373-14.142-53.352-26.866
			c-21.271-16.934-37.138-39.066-46.257-64.398c5.242-1.222,10.423-2.669,15.521-4.298c5.695,11.935,12.812,23.123,21.256,33.321
			c1.602,1.936,3.916,2.936,6.247,2.936c1.821,0,3.651-0.611,5.164-1.862c3.447-2.855,3.928-7.963,1.074-11.411
			c-7.265-8.774-13.433-18.367-18.44-28.58c31.287-12.902,58.845-33.599,80.074-60.275c1.734-2.174,3.436-4.398,5.059-6.614
			c3.918-5.358,7.656-11.54,11.757-19.449c1.548-2.979,3.321-5.848,5.267-8.527c0.025-0.035,0.05-0.069,0.075-0.105
			c0.54-0.769,1.175-1.61,1.988-2.635c18.354-23.051,49.219-31.69,76.44-22.431l-47.012,59.059
			c-2.788,3.501-2.209,8.599,1.292,11.387l24.585,19.573C192.329,167.951,177.355,180.64,164.327,195.471z M400.581,96.288
			l35.511,35.511l-13.37,13.37c-10.084-8.235-19.339-17.564-27.562-27.892c-1.597-2.004-3.157-4.05-4.642-6.079
			c-0.668-0.913-1.332-1.869-1.997-2.853L400.581,96.288z M447.137,261.939c-15.982,12.725-33.898,21.742-53.358,26.869
			c-0.96-4.858-2.122-9.669-3.442-14.435c15.212-5.894,29.419-14.054,42.321-24.328c3.291-2.621,6.514-5.396,9.577-8.249
			c3.276-3.049,3.46-8.178,0.41-11.454c-3.05-3.276-8.178-3.459-11.454-0.41c-2.76,2.57-5.664,5.07-8.63,7.433
			c-11.359,9.045-23.839,16.266-37.183,21.54c-7.363-20.074-17.937-38.98-31.39-55.876c-2.036-2.557-4.161-5.1-6.321-7.564
			c-13.026-14.827-28-27.516-44.627-37.83l24.59-19.578c1.681-1.339,2.763-3.29,3.005-5.427c0.242-2.136-0.374-4.28-1.712-5.961
			l-47.015-59.051c27.223-9.261,58.088-0.623,76.439,22.427c0.79,0.992,1.441,1.856,1.994,2.641c0.023,0.033,0.046,0.066,0.07,0.098
			c1.956,2.697,3.726,5.567,5.262,8.528c4.102,7.907,7.841,14.09,11.766,19.455c1.613,2.205,3.31,4.428,5.043,6.605
			c21.303,26.757,48.937,47.405,80.095,60.277c-3.219,6.565-6.928,12.893-11.091,18.884c-2.554,3.675-1.646,8.725,2.03,11.28
			c1.41,0.98,3.021,1.45,4.617,1.45c2.565,0,5.087-1.215,6.663-3.48c4.952-7.126,9.328-14.681,13.075-22.532
			c5.099,1.634,10.274,3.072,15.517,4.296C484.269,222.877,468.404,245.005,447.137,261.939z"/>
	</g>
</g>
<g>
	<g>
		<path d="M242.863,336.491c-3.165-3.165-8.297-3.165-11.461,0L123.223,444.67l-19.445-19.452l60.091-60.091
			c3.165-3.165,3.165-8.295,0-11.46c-3.165-3.165-8.296-3.165-11.46,0l-65.82,65.82c-3.165,3.164-3.165,8.295-0.001,11.459
			l30.904,30.915c1.519,1.52,3.581,2.375,5.731,2.375c2.149,0,4.211-0.854,5.73-2.374l113.91-113.91
			C246.028,344.787,246.028,339.656,242.863,336.491z"/>
	</g>
</g>
<g>
</g>
<g>
</g>
<g>
</g>
<g>
</g>
<g>
</g>
<g>
</g>
<g>
</g>
<g>
</g>
<g>
</g>
<g>
</g>
<g>
</g>
<g>
</g>
<g>
</g>
<g>
</g>
<g>
</g>
</svg>
